<svg width="22" height="23" viewBox="0 0 22 23" fill="none" xmlns="http://www.w3.org/2000/svg">
<path d="M14.25 21.75V13.0833C14.25 12.796 14.1359 12.5205 13.9327 12.3173C13.7295 12.1141 13.454 12 13.1667 12H8.83333C8.54602 12 8.27047 12.1141 8.0673 12.3173C7.86414 12.5205 7.75 12.796 7.75 13.0833V21.75" stroke="#CCC7C7" stroke-width="2" stroke-linecap="round" stroke-linejoin="round"/>
<path d="M1.25 9.83334C1.24992 9.51816 1.31861 9.20676 1.45127 8.92087C1.58393 8.63497 1.77736 8.38145 2.01808 8.17801L9.60142 1.67909C9.99248 1.34857 10.488 1.16724 11 1.16724C11.512 1.16724 12.0075 1.34857 12.3986 1.67909L19.9819 8.17801C20.2226 8.38145 20.4161 8.63497 20.5487 8.92087C20.6814 9.20676 20.7501 9.51816 20.75 9.83334V19.5833C20.75 20.158 20.5217 20.7091 20.1154 21.1154C19.7091 21.5217 19.158 21.75 18.5833 21.75H3.41667C2.84203 21.75 2.29093 21.5217 1.8846 21.1154C1.47827 20.7091 1.25 20.158 1.25 19.5833V9.83334Z" stroke="#CCC7C7" stroke-width="2" stroke-linecap="round" stroke-linejoin="round"/>
</svg>
