<svg width="51" height="51" viewBox="0 0 51 51" fill="none" xmlns="http://www.w3.org/2000/svg">
<path d="M12.0493 32.6022C7.39663 30.7449 4.6875 26.1511 4.6875 21.4017C4.6875 15.2389 9.561 9.14963 12.9811 5.63701C14.8383 3.72716 17.6716 3.72716 19.531 5.63701C20.5658 6.69921 21.4408 7.99699 22.5661 9.46303M17.3077 31.3948C17.3077 23.9153 23.5105 16.524 27.8645 12.2542C30.2287 9.93839 33.8338 9.93839 36.198 12.2542C40.552 16.524 46.7548 23.9153 46.7548 31.3948C46.7548 38.7293 41.1809 46.274 32.0313 46.274C22.8816 46.274 17.3077 38.7293 17.3077 31.3948Z" stroke="#C6C2C2" stroke-width="2" stroke-linecap="round" stroke-linejoin="round"/>
<path d="M39.393 32.6021C39.393 37.2506 36.2379 38.9122 33.0829 38.9122" stroke="#C6C2C2" stroke-width="2" stroke-linecap="round" stroke-linejoin="round"/>
</svg>
