<svg width="229" height="48" viewBox="0 0 229 48" fill="none" xmlns="http://www.w3.org/2000/svg">
<path d="M14 32.6C18.4 32.6 22 28.94 22 24.5C22 22.18 20.86 19.98 18.58 18.12C16.3 16.26 14.58 13.5 14 10.6C13.42 13.5 11.72 16.28 9.42 18.12C7.12 19.96 6 22.2 6 24.5C6 28.94 9.6 32.6 14 32.6Z" stroke="#F54848" stroke-width="6" stroke-linecap="round" stroke-linejoin="round"/>
<path d="M25.12 13.2C26.4955 11.0023 27.4706 8.5781 28 6.04001C29 11.04 32 15.84 36 19.04C40 22.24 42 26.04 42 30.04C42.0114 32.8046 41.2017 35.5103 39.6736 37.8142C38.1454 40.1181 35.9676 41.9163 33.4163 42.981C30.8649 44.0457 28.0548 44.3288 25.3423 43.7946C22.6298 43.2603 20.1371 41.9327 18.18 39.98" stroke="#D3CCCC" stroke-width="6" stroke-linecap="round" stroke-linejoin="round"/>
<path d="M86.564 28.62C86.564 30.996 85.916 32.82 84.62 34.092C83.348 35.364 81.56 36 79.256 36H75.8C72.968 36 70.952 35.508 69.752 34.524C68.576 33.54 67.988 31.836 67.988 29.412V10.368H78.824C81.272 10.368 83.108 10.98 84.332 12.204C85.58 13.428 86.204 15.156 86.204 17.388C86.204 18.684 85.868 19.788 85.196 20.7C84.548 21.612 83.828 22.26 83.036 22.644C85.388 23.748 86.564 25.74 86.564 28.62ZM78.428 20.376C80.276 20.376 81.2 19.452 81.2 17.604C81.2 15.756 80.276 14.832 78.428 14.832H72.992V20.376H78.428ZM81.56 28.368C81.56 27.216 81.356 26.352 80.948 25.776C80.54 25.176 79.808 24.876 78.752 24.876H72.992V28.908C72.992 29.892 73.232 30.576 73.712 30.96C74.216 31.344 75.032 31.536 76.16 31.536H78.752C80.624 31.536 81.56 30.48 81.56 28.368ZM95.8233 36L91.1433 36.036V8.928H95.8233V36ZM111.975 26.712V24.84C111.975 23.064 111.711 21.708 111.183 20.772C110.679 19.836 109.611 19.368 107.979 19.368C105.339 19.368 104.019 21.144 104.019 24.696V26.568C104.019 30.384 105.339 32.292 107.979 32.292C109.683 32.292 110.799 31.656 111.327 30.384C111.759 29.376 111.975 28.152 111.975 26.712ZM116.655 25.632C116.655 30.072 115.815 33.048 114.135 34.56C112.719 35.856 110.667 36.504 107.979 36.504C104.547 36.504 102.231 35.496 101.031 33.48C99.9027 31.632 99.3387 29.016 99.3387 25.632C99.3387 22.464 99.9027 19.98 101.031 18.18C102.279 16.164 104.547 15.156 107.835 15.156C111.147 15.156 113.439 16.044 114.711 17.82C116.007 19.572 116.655 22.176 116.655 25.632ZM131.522 26.712V24.84C131.522 23.064 131.258 21.708 130.73 20.772C130.226 19.836 129.158 19.368 127.526 19.368C124.886 19.368 123.566 21.144 123.566 24.696V26.568C123.566 30.384 124.886 32.292 127.526 32.292C129.23 32.292 130.346 31.656 130.874 30.384C131.306 29.376 131.522 28.152 131.522 26.712ZM136.202 25.632C136.202 30.072 135.362 33.048 133.682 34.56C132.266 35.856 130.214 36.504 127.526 36.504C124.094 36.504 121.778 35.496 120.578 33.48C119.45 31.632 118.886 29.016 118.886 25.632C118.886 22.464 119.45 19.98 120.578 18.18C121.826 16.164 124.094 15.156 127.382 15.156C130.694 15.156 132.986 16.044 134.258 17.82C135.554 19.572 136.202 22.176 136.202 25.632ZM154.884 36H151.752L150.312 33.516L145.308 36.216C142.524 36.216 140.652 35.208 139.692 33.192C139.212 32.208 138.876 31.152 138.684 30.024C138.516 28.872 138.432 27.684 138.432 26.46C138.432 25.212 138.444 24.3 138.468 23.724C138.492 23.124 138.552 22.44 138.648 21.672C138.744 20.88 138.876 20.22 139.044 19.692C139.236 19.164 139.5 18.624 139.836 18.072C140.172 17.496 140.58 17.04 141.06 16.704C142.14 15.96 143.544 15.588 145.272 15.588H150.204V8.928H154.884V36ZM150.204 29.448V19.8H146.64C145.32 19.8 144.396 20.304 143.868 21.312C143.364 22.32 143.112 23.832 143.112 25.848C143.112 27.84 143.352 29.244 143.832 30.06C144.336 30.876 145.272 31.284 146.64 31.284L150.204 29.448Z" fill="#F54848"/>
<path d="M176.288 36H168.656C165.776 36 163.688 35.448 162.392 34.344C161.12 33.216 160.484 31.392 160.484 28.872V10.368H165.488V28.872C165.488 29.88 165.716 30.576 166.172 30.96C166.628 31.344 167.456 31.536 168.656 31.536H176.288V36ZM182.293 7.596C183.421 7.596 184.153 7.776 184.489 8.136C184.825 8.472 184.993 9.204 184.993 10.332C184.993 11.436 184.813 12.168 184.453 12.528C184.117 12.864 183.385 13.032 182.257 13.032C181.153 13.032 180.421 12.852 180.061 12.492C179.725 12.132 179.557 11.4 179.557 10.296C179.557 9.192 179.725 8.472 180.061 8.136C180.421 7.776 181.165 7.596 182.293 7.596ZM184.597 36H179.917V16.2H184.597V36ZM205.779 36H201.099V22.86C201.099 21.684 200.859 20.88 200.379 20.448C199.899 20.016 199.227 19.8 198.363 19.8L194.151 21.564V36H189.471V15.444H192.963L194.043 17.892L199.803 15.228C201.411 15.228 202.803 15.828 203.979 17.028C205.179 18.204 205.779 19.932 205.779 22.212V36ZM228.144 36H222.528L217.128 28.728L215.076 31.644V36H210.396V8.928H215.076V26.028L221.628 16.272H226.92L220.188 25.488L228.144 36Z" fill="#D3CCCC"/>
</svg>
