<svg width="23" height="21" viewBox="0 0 23 21" fill="none" xmlns="http://www.w3.org/2000/svg">
<path fill-rule="evenodd" clip-rule="evenodd" d="M12.1278 2.93105H10.5447C9.91815 2.44058 9.11981 2.17143 8.29452 2.17243C7.42627 2.17243 6.64618 2.4638 6.04435 2.93105H4.46118C3.69868 2.93105 2.96742 3.20761 2.42825 3.6999C1.88908 4.19218 1.58618 4.85986 1.58618 5.55605V14.4224C1.58618 15.1186 1.88908 15.7863 2.42825 16.2786C2.96742 16.7709 3.69868 17.0474 4.46118 17.0474C4.46118 17.2795 4.56215 17.5021 4.74187 17.6661C4.92159 17.8302 5.16535 17.9224 5.41952 17.9224H7.33618V19.6724H9.25285V17.9224H11.1695C11.4237 17.9224 11.6674 17.8302 11.8472 17.6661C12.0269 17.5021 12.1278 17.2795 12.1278 17.0474C12.8903 17.0474 13.6216 16.7709 14.1608 16.2786C14.6999 15.7863 15.0028 15.1186 15.0028 14.4224V5.55605C15.0028 4.85986 14.6999 4.19218 14.1608 3.6999C13.6216 3.20761 12.8903 2.93105 12.1278 2.93105ZM12.1278 4.68105H9.67835C9.54278 4.45339 9.34296 4.26299 9.09964 4.12959C8.85631 3.9962 8.57832 3.92467 8.29452 3.92243C7.70322 3.92243 7.18764 4.2278 6.91068 4.68105H4.46118C4.20702 4.68105 3.96326 4.77324 3.78354 4.93733C3.60382 5.10143 3.50285 5.32399 3.50285 5.55605V12.6943C4.50335 12.6261 6.21493 12.2787 8.29452 10.9224C10.3741 9.56618 12.0857 10.2286 13.0862 10.9277V5.55518C13.0862 5.32311 12.9852 5.10055 12.8055 4.93646C12.6258 4.77236 12.382 4.68105 12.1278 4.68105Z" fill="#A8A8A8"/>
</svg>
