<svg width="19" height="18" viewBox="0 0 19 18" fill="none" xmlns="http://www.w3.org/2000/svg">
<mask id="path-1-inside-1_209_424" fill="white">
<path d="M16.0625 2H13.4375V0.6875C13.4375 0.571468 13.3914 0.460188 13.3094 0.378141C13.2273 0.296094 13.116 0.25 13 0.25C12.884 0.25 12.7727 0.296094 12.6906 0.378141C12.6086 0.460188 12.5625 0.571468 12.5625 0.6875V2H6.4375V0.6875C6.4375 0.571468 6.39141 0.460188 6.30936 0.378141C6.22731 0.296094 6.11603 0.25 6 0.25C5.88397 0.25 5.77269 0.296094 5.69064 0.378141C5.60859 0.460188 5.5625 0.571468 5.5625 0.6875V2H2.9375C2.35755 2.00069 1.80156 2.23139 1.39147 2.64147C0.981386 3.05156 0.750695 3.60755 0.75 4.1875V15.5625C0.750695 16.1424 0.981386 16.6984 1.39147 17.1085C1.80156 17.5186 2.35755 17.7493 2.9375 17.75H16.0625C16.6427 17.75 17.1991 17.5195 17.6093 17.1093C18.0195 16.6991 18.25 16.1427 18.25 15.5625V4.1875C18.25 3.60734 18.0195 3.05094 17.6093 2.6407C17.1991 2.23047 16.6427 2 16.0625 2ZM17.375 15.5625C17.375 15.9106 17.2367 16.2444 16.9906 16.4906C16.7444 16.7367 16.4106 16.875 16.0625 16.875H2.9375C2.5894 16.875 2.25556 16.7367 2.00942 16.4906C1.76328 16.2444 1.625 15.9106 1.625 15.5625V8.125H17.375V15.5625ZM17.375 7.25H1.625V4.1875C1.625 3.463 2.21125 2.875 2.9375 2.875H5.5625V4.1875C5.5625 4.30353 5.60859 4.41481 5.69064 4.49686C5.77269 4.57891 5.88397 4.625 6 4.625C6.11603 4.625 6.22731 4.57891 6.30936 4.49686C6.39141 4.41481 6.4375 4.30353 6.4375 4.1875V2.875H12.5625V4.1875C12.5625 4.30353 12.6086 4.41481 12.6906 4.49686C12.7727 4.57891 12.884 4.625 13 4.625C13.116 4.625 13.2273 4.57891 13.3094 4.49686C13.3914 4.41481 13.4375 4.30353 13.4375 4.1875V2.875H16.0625C16.4106 2.875 16.7444 3.01328 16.9906 3.25942C17.2367 3.50556 17.375 3.8394 17.375 4.1875V7.25Z"/>
</mask>
<path d="M16.0625 2V-2V2ZM13.4375 2H9.4375V6H13.4375V2ZM13 0.25V-3.75V0.25ZM12.5625 2V6H16.5625V2H12.5625ZM6.4375 2H2.4375V6H6.4375V2ZM6 0.25V-3.75V0.25ZM5.5625 2V6H9.5625V2H5.5625ZM2.9375 2V-2L2.93271 -2L2.9375 2ZM0.75 4.1875L-3.25 4.18271V4.1875H0.75ZM0.75 15.5625H-3.25L-3.25 15.5673L0.75 15.5625ZM2.9375 17.75L2.93271 21.75H2.9375V17.75ZM1.625 8.125V4.125H-2.375V8.125H1.625ZM17.375 8.125H21.375V4.125H17.375V8.125ZM17.375 7.25V11.25H21.375V7.25H17.375ZM1.625 7.25H-2.375V11.25H1.625V7.25ZM5.5625 2.875H9.5625V-1.125H5.5625V2.875ZM6.4375 2.875V-1.125H2.4375V2.875H6.4375ZM12.5625 2.875H16.5625V-1.125H12.5625V2.875ZM13.4375 2.875V-1.125H9.4375V2.875H13.4375ZM16.0625 -2H13.4375V6H16.0625V-2ZM17.4375 2V0.6875H9.4375V2H17.4375ZM17.4375 0.6875C17.4375 -0.489391 16.97 -1.61809 16.1378 -2.45029L10.4809 3.20657C9.81283 2.53846 9.4375 1.63233 9.4375 0.6875H17.4375ZM16.1378 -2.45029C15.3056 -3.28248 14.1769 -3.75 13 -3.75V4.25C12.0552 4.25 11.149 3.87467 10.4809 3.20657L16.1378 -2.45029ZM13 -3.75C11.8231 -3.75 10.6944 -3.28248 9.86221 -2.45029L15.5191 3.20657C14.851 3.87467 13.9448 4.25 13 4.25V-3.75ZM9.86221 -2.45029C9.03002 -1.61809 8.5625 -0.489391 8.5625 0.6875H16.5625C16.5625 1.63233 16.1872 2.53846 15.5191 3.20657L9.86221 -2.45029ZM8.5625 0.6875V2H16.5625V0.6875H8.5625ZM12.5625 -2H6.4375V6H12.5625V-2ZM10.4375 2V0.6875H2.4375V2H10.4375ZM10.4375 0.6875C10.4375 -0.489391 9.96998 -1.61809 9.13779 -2.45029L3.48093 3.20657C2.81283 2.53846 2.4375 1.63233 2.4375 0.6875H10.4375ZM9.13779 -2.45029C8.30559 -3.28248 7.1769 -3.75 6 -3.75V4.25C5.05517 4.25 4.14903 3.87467 3.48093 3.20657L9.13779 -2.45029ZM6 -3.75C4.8231 -3.75 3.6944 -3.28248 2.86221 -2.45029L8.51907 3.20657C7.85097 3.87466 6.94484 4.25 6 4.25V-3.75ZM2.86221 -2.45029C2.03002 -1.6181 1.5625 -0.489401 1.5625 0.6875H9.5625C9.5625 1.63234 9.18716 2.53847 8.51907 3.20657L2.86221 -2.45029ZM1.5625 0.6875V2H9.5625V0.6875H1.5625ZM5.5625 -2H2.9375V6H5.5625V-2ZM2.93271 -2C1.29356 -1.99803 -0.277899 -1.34601 -1.43696 -0.186956L4.2199 5.4699C3.88101 5.80878 3.42155 5.99942 2.94229 6L2.93271 -2ZM-1.43696 -0.186956C-2.59601 0.972101 -3.24803 2.54356 -3.25 4.18271L4.75 4.19229C4.74942 4.67155 4.55878 5.13101 4.2199 5.4699L-1.43696 -0.186956ZM-3.25 4.1875V15.5625H4.75V4.1875H-3.25ZM-3.25 15.5673C-3.24803 17.2064 -2.59601 18.7779 -1.43696 19.937L4.2199 14.2801C4.55878 14.619 4.74942 15.0785 4.75 15.5577L-3.25 15.5673ZM-1.43696 19.937C-0.2779 21.096 1.29355 21.748 2.93271 21.75L2.94229 13.75C3.42155 13.7506 3.88101 13.9412 4.2199 14.2801L-1.43696 19.937ZM2.9375 21.75H16.0625V13.75H2.9375V21.75ZM16.0625 21.75C17.7035 21.75 19.2773 21.0981 20.4377 19.9377L14.7809 14.2809C15.1208 13.941 15.5818 13.75 16.0625 13.75V21.75ZM20.4377 19.9377C21.5981 18.7773 22.25 17.2035 22.25 15.5625H14.25C14.25 15.0818 14.441 14.6208 14.7809 14.2809L20.4377 19.9377ZM22.25 15.5625V4.1875H14.25V15.5625H22.25ZM22.25 4.1875C22.25 2.54647 21.5981 0.972658 20.4377 -0.187723L14.7809 5.46913C14.441 5.12922 14.25 4.6682 14.25 4.1875H22.25ZM20.4377 -0.187723C19.2773 -1.3481 17.7035 -2 16.0625 -2V6C15.5818 6 15.1208 5.80904 14.7809 5.46913L20.4377 -0.187723ZM13.375 15.5625C13.375 14.8497 13.6582 14.1661 14.1621 13.6621L19.819 19.319C20.8153 18.3227 21.375 16.9715 21.375 15.5625H13.375ZM14.1621 13.6621C14.6661 13.1582 15.3497 12.875 16.0625 12.875V20.875C17.4715 20.875 18.8227 20.3153 19.819 19.319L14.1621 13.6621ZM16.0625 12.875H2.9375V20.875H16.0625V12.875ZM2.9375 12.875C3.65027 12.875 4.33385 13.1581 4.83785 13.6621L-0.819005 19.319C0.177279 20.3153 1.52853 20.875 2.9375 20.875V12.875ZM4.83785 13.6621C5.34185 14.1662 5.625 14.8497 5.625 15.5625H-2.375C-2.375 16.9715 -1.81529 18.3227 -0.819005 19.319L4.83785 13.6621ZM5.625 15.5625V8.125H-2.375V15.5625H5.625ZM1.625 12.125H17.375V4.125H1.625V12.125ZM13.375 8.125V15.5625H21.375V8.125H13.375ZM17.375 3.25H1.625V11.25H17.375V3.25ZM5.625 7.25V4.1875H-2.375V7.25H5.625ZM5.625 4.1875C5.625 5.66866 4.42386 6.875 2.9375 6.875V-1.125C-0.00136232 -1.125 -2.375 1.25734 -2.375 4.1875H5.625ZM2.9375 6.875H5.5625V-1.125H2.9375V6.875ZM1.5625 2.875V4.1875H9.5625V2.875H1.5625ZM1.5625 4.1875C1.5625 5.3644 2.03002 6.4931 2.86221 7.32529L8.51907 1.66843C9.18716 2.33653 9.5625 3.24266 9.5625 4.1875H1.5625ZM2.86221 7.32529C3.6944 8.15748 4.8231 8.625 6 8.625V0.625C6.94484 0.625 7.85097 1.00034 8.51907 1.66843L2.86221 7.32529ZM6 8.625C7.1769 8.625 8.30559 8.15748 9.13779 7.32529L3.48093 1.66843C4.14903 1.00033 5.05517 0.625 6 0.625V8.625ZM9.13779 7.32529C9.96998 6.49309 10.4375 5.36439 10.4375 4.1875H2.4375C2.4375 3.24267 2.81283 2.33654 3.48093 1.66843L9.13779 7.32529ZM10.4375 4.1875V2.875H2.4375V4.1875H10.4375ZM6.4375 6.875H12.5625V-1.125H6.4375V6.875ZM8.5625 2.875V4.1875H16.5625V2.875H8.5625ZM8.5625 4.1875C8.5625 5.36439 9.03002 6.49309 9.86221 7.32529L15.5191 1.66843C16.1872 2.33654 16.5625 3.24267 16.5625 4.1875H8.5625ZM9.86221 7.32529C10.6944 8.15748 11.8231 8.625 13 8.625V0.625C13.9448 0.625 14.851 1.00033 15.5191 1.66843L9.86221 7.32529ZM13 8.625C14.1769 8.625 15.3056 8.15748 16.1378 7.32529L10.4809 1.66843C11.149 1.00033 12.0552 0.625 13 0.625V8.625ZM16.1378 7.32529C16.97 6.49309 17.4375 5.36439 17.4375 4.1875H9.4375C9.4375 3.24267 9.81283 2.33654 10.4809 1.66843L16.1378 7.32529ZM17.4375 4.1875V2.875H9.4375V4.1875H17.4375ZM13.4375 6.875H16.0625V-1.125H13.4375V6.875ZM16.0625 6.875C15.3497 6.875 14.6662 6.59185 14.1621 6.08785L19.819 0.430995C18.8227 -0.565291 17.4715 -1.125 16.0625 -1.125V6.875ZM14.1621 6.08785C13.6581 5.58385 13.375 4.90027 13.375 4.1875H21.375C21.375 2.77853 20.8153 1.42728 19.819 0.430995L14.1621 6.08785ZM13.375 4.1875V7.25H21.375V4.1875H13.375Z" fill="#A8A8A8" mask="url(#path-1-inside-1_209_424)"/>
</svg>
