<svg width="15" height="19" viewBox="0 0 15 19" fill="none" xmlns="http://www.w3.org/2000/svg">
<path d="M7.5 2.00002C5.9529 2.00002 4.46917 2.6146 3.37521 3.70856C2.28125 4.80253 1.66667 6.28626 1.66667 7.83335C1.66667 10.2184 3.15167 12.5192 4.78167 14.3017C5.61512 15.2097 6.52453 16.045 7.5 16.7984C7.64556 16.6867 7.81639 16.5506 8.0125 16.39C8.79567 15.7469 9.53276 15.0496 10.2183 14.3034C11.8483 12.5192 13.3333 10.2192 13.3333 7.83335C13.3333 6.28626 12.7188 4.80253 11.6248 3.70856C10.5308 2.6146 9.0471 2.00002 7.5 2.00002ZM7.5 18.845L7.0275 18.52L7.025 18.5184L7.02 18.5142L7.00333 18.5025L6.94083 18.4584L6.71583 18.2942C5.57572 17.4373 4.51656 16.4778 3.55167 15.4275C1.84833 13.5625 0 10.8634 0 7.83252C2.96403e-08 5.8434 0.790176 3.93574 2.1967 2.52922C3.60322 1.1227 5.51088 0.33252 7.5 0.33252C9.48912 0.33252 11.3968 1.1227 12.8033 2.52922C14.2098 3.93574 15 5.8434 15 7.83252C15 10.8634 13.1517 13.5634 11.4483 15.4259C10.4837 16.4761 9.42483 17.4356 8.285 18.2925C8.19005 18.3634 8.0942 18.4332 7.9975 18.5017L7.98 18.5134L7.975 18.5175L7.97333 18.5184L7.5 18.845ZM7.5 6.16669C7.05797 6.16669 6.63405 6.34228 6.32149 6.65484C6.00893 6.9674 5.83333 7.39133 5.83333 7.83335C5.83333 8.27538 6.00893 8.6993 6.32149 9.01186C6.63405 9.32442 7.05797 9.50002 7.5 9.50002C7.94203 9.50002 8.36595 9.32442 8.67851 9.01186C8.99107 8.6993 9.16667 8.27538 9.16667 7.83335C9.16667 7.39133 8.99107 6.9674 8.67851 6.65484C8.36595 6.34228 7.94203 6.16669 7.5 6.16669ZM4.16667 7.83335C4.16667 6.9493 4.51786 6.10145 5.14298 5.47633C5.7681 4.85121 6.61594 4.50002 7.5 4.50002C8.38406 4.50002 9.2319 4.85121 9.85702 5.47633C10.4821 6.10145 10.8333 6.9493 10.8333 7.83335C10.8333 8.71741 10.4821 9.56525 9.85702 10.1904C9.2319 10.8155 8.38406 11.1667 7.5 11.1667C6.61594 11.1667 5.7681 10.8155 5.14298 10.1904C4.51786 9.56525 4.16667 8.71741 4.16667 7.83335Z" fill="#A8A8A8"/>
</svg>
